#!OML:ASF G:\JayActor3\Patient Classification 1\Patient 1\Session 5\male.ASF
:FULLY-SPECIFIED
:DEGREES
296
root -26.8944 16.4859 -5.78771 -87.5531 85.9889 -107.461
lowerback 25.2091 -1.16822 4.31621
upperback 5.36407 0.0455222 0.325921
thorax -8.06765 0.10621 -2.15738
lowerneck 3.65584 -0.499031 1.50273
upperneck -12.5276 -0.216591 1.50167
head -4.82006 -0.186803 0.249522
rclavicle 2.68359e-015 -3.67752e-015
rhumerus -34.0776 -1.88131 -86.9379
rradius 30.6286
rwrist -2.10605
rhand -21.2557 -9.58386
rfingers 7.12502
rthumb 5.12741 -39.5018
lclavicle 2.68359e-015 -3.67752e-015
lhumerus -36.3902 2.47614 84.9087
lradius 25.1433
lwrist 21.4596
lhand -17.8471 10.3994
lfingers 7.12502
lthumb 8.41786 40.2117
rfemur -34.5005 14.2146 26.7504
rtibia 47.1454
rfoot -30.0297 -17.6368
rtoes 4.7012
lfemur -58.5198 7.02434 -22.7239
ltibia 31.5724
lfoot -15.8548 7.27435
ltoes -17.0733
297
root -26.7622 16.4712 -5.80445 -86.9575 85.8947 -106.747
lowerback 25.2133 -1.18226 4.46278
upperback 5.39774 0.0684319 0.338318
thorax -8.0303 0.116706 -2.235
lowerneck 3.64322 -0.499005 1.49926
upperneck -12.511 -0.217635 1.5019
head -4.81128 -0.187071 0.250164
rclavicle -3.37934e-015 -1.66979e-014
rhumerus -34.101 -1.82627 -86.957
rradius 30.6415
rwrist -2.12783
rhand -21.2553 -9.59524
rfingers 7.12502
rthumb 5.12782 -39.5132
lclavicle -3.37934e-015 -1.66979e-014
lhumerus -36.4092 2.55075 84.8378
lradius 25.0954
lwrist 21.4351
lhand -17.7135 10.4775
lfingers 7.12502
lthumb 8.54679 40.2845
rfemur -33.6654 14.1651 26.9779
rtibia 46.9052
rfoot -30.4674 -17.6319
rtoes 4.61435
lfemur -58.0895 7.01787 -22.8633
ltibia 29.3416
lfoot -16.0098 7.56101
ltoes -16.8195
298
root -26.6286 16.4544 -5.82214 -86.4376 85.8134 -106.085
lowerback 25.238 -1.20032 4.60066
upperback 5.4382 0.0853398 0.346748
thorax -7.99614 0.124984 -2.31024
lowerneck 3.64351 -0.497853 1.48885
upperneck -12.4989 -0.217 1.5058
head -4.80683 -0.186511 0.253267
rclavicle 1.98785e-015 2.22639e-014
rhumerus -34.1261 -1.75482 -86.9834
rradius 30.6564
rwrist -2.18582
rhand -21.2418 -9.59117
rfingers 7.12502
rthumb 5.14092 -39.5088
lclavicle 1.98785e-015 2.22639e-014
lhumerus -36.4186 2.65644 84.7511
lradius 25.0445
lwrist 21.4093
lhand -17.5838 10.5271
lfingers 7.12502
lthumb 8.67196 40.3289
rfemur -32.791 14.1157 27.1923
rtibia 46.6628
rfoot -30.9385 -17.6079
rtoes 4.54854
lfemur -57.5912 6.93826 -22.897
ltibia 27.3301
lfoot -16.0965 7.85108
ltoes -16.5755
299
root -26.4933 16.4358 -5.84053 -85.9618 85.7343 -105.439
lowerback 25.2818 -1.22089 4.73496
upperback 5.48838 0.0999916 0.354589
thorax -7.96099 0.132982 -2.38348
lowerneck 3.65479 -0.497244 1.48281
upperneck -12.4906 -0.217265 1.50378
head -4.80605 -0.186429 0.253681
rclavicle 5.96354e-016 -8.34896e-015
rhumerus -34.1469 -1.67649 -87.0131
rradius 30.6655
rwrist -2.26669
rhand -21.2194 -9.56628
rfingers 7.12502
rthumb 5.16249 -39.4834
lclavicle 5.96354e-016 -8.34896e-015
lhumerus -36.4189 2.79011 84.6495
lradius 24.9993
lwrist 21.3771
lhand -17.4759 10.5825
lfingers 7.12502
lthumb 8.77616 40.38
rfemur -31.8711 14.0752 27.4052
rtibia 46.4136
rfoot -31.4336 -17.5728
rtoes 4.49596
lfemur -57.0316 6.76074 -22.775
ltibia 25.5783
lfoot -16.1123 8.12005
ltoes -16.3242
300
root -26.3562 16.4154 -5.85935 -85.5595 85.6724 -104.844
lowerback 25.3431 -1.24207 4.84596
upperback 5.54512 0.109404 0.360789
thorax -7.92778 0.139419 -2.44364
lowerneck 3.67316 -0.497577 1.47478
upperneck -12.4821 -0.219093 1.50094
head -4.80661 -0.187084 0.254276
rclavicle -6.95746e-016 6.4605e-015
rhumerus -34.1669 -1.5816 -87.0463
rradius 30.6657
rwrist -2.35461
rhand -21.2001 -9.52188
rfingers 7.12502
rthumb 5.18112 -39.4385
lclavicle -6.95746e-016 6.4605e-015
lhumerus -36.4154 2.95628 84.5341
lradius 24.9622
lwrist 21.3323
lhand -17.3959 10.6252
lfingers 7.12502
lthumb 8.85332 40.4195
rfemur -30.9139 14.0404 27.5999
rtibia 46.1599
rfoot -31.945 -17.5333
rtoes 4.43235
lfemur -56.4276 6.46661 -22.4997
ltibia 24.1167
lfoot -16.0497 8.32693
ltoes -16.0946
301
root -26.2174 16.3933 -5.87843 -85.1773 85.6227 -104.259
lowerback 25.4134 -1.2622 4.93722
upperback 5.60408 0.1157 0.36419
thorax -7.89695 0.144916 -2.49466
lowerneck 3.69751 -0.498838 1.47022
upperneck -12.4694 -0.222071 1.49807
head -4.80685 -0.188559 0.254315
rclavicle 1.02374e-014 2.51463e-014
rhumerus -34.188 -1.48195 -87.0817
rradius 30.6556
rwrist -2.44137
rhand -21.1736 -9.46511
rfingers 7.12502
rthumb 5.20676 -39.3811
lclavicle 1.02374e-014 2.51463e-014
lhumerus -36.4123 3.14613 84.4047
lradius 24.9345
lwrist 21.276
lhand -17.3561 10.6482
lfingers 7.12502
lthumb 8.89173 40.4408
rfemur -29.9309 14.0124 27.7795
rtibia 45.903
rfoot -32.4676 -17.4813
rtoes 4.33626
lfemur -55.8122 6.06036 -22.0761
ltibia 22.9781
lfoot -15.9626 8.42324
ltoes -15.7693
302
root -26.0766 16.3693 -5.89766 -84.7328 85.5903 -103.612
lowerback 25.4802 -1.27648 5.00216
upperback 5.66324 0.121988 0.362645
thorax -7.86414 0.150923 -2.53603
lowerneck 3.7236 -0.501093 1.46877
upperneck -12.4521 -0.22603 1.49761
head -4.80579 -0.190822 0.254665
rclavicle 1.11319e-014 2.15681e-014
rhumerus -34.2085 -1.38607 -87.1182
rradius 30.6325
rwrist -2.51127
rhand -21.1419 -9.40148
rfingers 7.12502
rthumb 5.23731 -39.3168
lclavicle 1.11319e-014 2.15681e-014
lhumerus -36.4085 3.34996 84.2647
lradius 24.9167
lwrist 21.2063
lhand -17.3604 10.6696
lfingers 7.12502
lthumb 8.88755 40.4624
rfemur -28.9443 13.9933 27.9375
rtibia 45.6536
rfoot -32.9912 -17.4316
rtoes 4.20298
lfemur -55.2103 5.54992 -21.5264
ltibia 22.1755
lfoot -15.8394 8.40129
ltoes -15.5075
303
root -25.9339 16.3435 -5.91698 -84.199 85.5731 -102.895
lowerback 25.5291 -1.28233 5.04418
upperback 5.71587 0.130877 0.35558
thorax -7.82933 0.158142 -2.57105
lowerneck 3.75555 -0.505048 1.47007
upperneck -12.4317 -0.231225 1.50467
head -4.80475 -0.194277 0.257159
rclavicle -8.34896e-015 -1.25234e-014
rhumerus -34.237 -1.30128 -87.154
rradius 30.6018
rwrist -2.56175
rhand -21.0993 -9.33139
rfingers 7.12502
rthumb 5.27846 -39.2456
lclavicle -8.34896e-015 -1.25234e-014
lhumerus -36.3983 3.55581 84.1158
lradius 24.8979
lwrist 21.1235
lhand -17.407 10.6863
lfingers 7.12502
lthumb 8.8426 40.481
rfemur -27.9808 13.982 28.074
rtibia 45.4197
rfoot -33.5112 -17.3883
rtoes 4.04585
lfemur -54.6622 4.97859 -20.9089
ltibia 21.7187
lfoot -15.7005 8.19771
ltoes -15.2916
304
root -25.7888 16.3156 -5.93631 -83.4894 85.5803 -102.033
lowerback 25.547 -1.27572 5.05391
upperback 5.75793 0.143378 0.339105
thorax -7.79039 0.166887 -2.59887
lowerneck 3.79155 -0.510363 1.47239
upperneck -12.4093 -0.237152 1.52029
head -4.80382 -0.198617 0.262437
rclavicle -1.38155e-014 -1.59028e-014
rhumerus -34.2738 -1.23495 -87.1885
rradius 30.5623
rwrist -2.58788
rhand -21.042 -9.25726
rfingers 7.12502
rthumb 5.3338 -39.1701
lclavicle -1.38155e-014 -1.59028e-014
lhumerus -36.3846 3.74825 83.9609
lradius 24.8789
lwrist 21.0395
lhand -17.4904 10.6976
lfingers 7.12502
lthumb 8.76209 40.4958
rfemur -27.0596 13.9806 28.1774
rtibia 45.2093
rfoot -34.0318 -17.352
rtoes 3.86768
lfemur -54.1902 4.40366 -20.3052
ltibia 21.5921
lfoot -15.555 7.79208
ltoes -15.1576
305
root -25.6414 16.2858 -5.95565 -82.6414 85.6041 -101.07
lowerback 25.5292 -1.25799 5.04159
upperback 5.78895 0.160297 0.315521
thorax -7.74539 0.177364 -2.623
lowerneck 3.83074 -0.516361 1.46955
upperneck -12.3872 -0.242726 1.54922
head -4.80363 -0.203235 0.273161
rclavicle -5.46658e-015 -7.45443e-015
rhumerus -34.3201 -1.19206 -87.221
rradius 30.5174
rwrist -2.58048
rhand -20.98 -9.17613
rfingers 7.12502
rthumb 5.39362 -39.0875
lclavicle -5.46658e-015 -7.45443e-015
lhumerus -36.3629 3.9323 83.801
lradius 24.8523
lwrist 20.9406
lhand -17.5974 10.6997
lfingers 7.12502
lthumb 8.65889 40.5021
rfemur -26.183 13.9875 28.256
rtibia 45.0195
rfoot -34.554 -17.3196
rtoes 3.68652
lfemur -53.8134 3.90977 -19.8099
ltibia 21.7736
lfoot -15.3641 7.20506
ltoes -15.1364
306
root -25.4916 16.2548 -5.97507 -81.7658 85.6485 -100.12
lowerback 25.4809 -1.2335 5.01055
upperback 5.80337 0.176939 0.282974
thorax -7.70351 0.186812 -2.64596
lowerneck 3.8786 -0.523633 1.46558
upperneck -12.3651 -0.249077 1.58592
head -4.80524 -0.208668 0.286813
rclavicle 6.4605e-015 8.94531e-016
rhumerus -34.3834 -1.17798 -87.2514
rradius 30.4683
rwrist -2.54103
rhand -20.9151 -9.09149
rfingers 7.12502
rthumb 5.45636 -39.0012
lclavicle 6.4605e-015 8.94531e-016
lhumerus -36.3578 4.09469 83.6371
lradius 24.838
lwrist 20.8426
lhand -17.7134 10.6809
lfingers 7.12502
lthumb 8.54692 40.488
rfemur -25.3464 13.9929 28.304
rtibia 44.839
rfoot -35.0817 -17.2663
rtoes 3.52659
lfemur -53.5442 3.56636 -19.515
ltibia 22.2234
lfoot -15.0654 6.50204
ltoes -15.2355
